<svg width="11505" height="7608" viewBox="0 0 11505 7608" fill="none" xmlns="http://www.w3.org/2000/svg">
<circle cx="3328.14" cy="1997.14" r="1997.14" fill="#FF0000"/>
<circle cx="6168.14" cy="1997.14" r="1997.14" fill="#FF0000"/>
<rect x="1923" y="3403.38" width="3994.28" height="3994.28" transform="rotate(-45 1923 3403.38)" fill="#FF0000"/>
<path d="M2150 2378L2775.27 3461H1524.73L2150 2378Z" fill="#5E544B"/>
<path d="M4300 5458C4300 6645.41 3337.41 7608 2150 7608C962.588 7608 0 6645.41 0 5458C0 4270.59 962.588 3308 2150 3308C3337.41 3308 4300 4270.59 4300 5458Z" fill="#E4DECC"/>
<path d="M1127 3561C1368.18 5070.7 1365.26 5900.82 1127 7354" stroke="#C2BBA8" stroke-width="12"/>
<path d="M3171.79 7355C2930.61 5845.3 2933.53 5015.18 3171.79 3562" stroke="#C2BBA8" stroke-width="12"/>
<ellipse cx="3575.66" cy="4736.77" rx="368.5" ry="249.5" transform="rotate(100.172 3575.66 4736.77)" fill="black"/>
<ellipse cx="368.5" cy="249.5" rx="368.5" ry="249.5" transform="matrix(0.176606 0.984282 0.984282 -0.176606 412 4418.13)" fill="black"/>
<path d="M2716.14 5921C2717.37 5936.26 2718 5951.68 2718 5967.26C2718 6281.23 2463.47 6535.76 2149.5 6535.76C1835.53 6535.76 1581 6281.23 1581 5967.26C1581 5951.68 1581.63 5936.26 1582.86 5921C1606.4 6213.34 1851.1 6443.24 2149.5 6443.24C2447.9 6443.24 2692.6 6213.34 2716.14 5921Z" fill="black"/>
<path d="M10079 5458C10079 6645.41 9116.41 7608 7929 7608C6741.59 7608 5779 6645.41 5779 5458C5779 4270.59 6741.59 3308 7929 3308C9116.41 3308 10079 4270.59 10079 5458Z" fill="#D5F2FF"/>
<path d="M8652 4386C8652 5573.41 7689.41 6536 6502 6536C5314.59 6536 4352 5573.41 4352 4386C4352 3198.59 5314.59 2236 6502 2236C7689.41 2236 8652 3198.59 8652 4386Z" fill="#D5F2FF"/>
<path d="M11505 4386C11505 5573.41 10542.4 6536 9355 6536C8167.59 6536 7205 5573.41 7205 4386C7205 3198.59 8167.59 2236 9355 2236C10542.4 2236 11505 3198.59 11505 4386Z" fill="#D5F2FF"/>
<path d="M10079 3562C10079 4749.41 9116.41 5712 7929 5712C6741.59 5712 5779 4749.41 5779 3562C5779 2374.59 6741.59 1412 7929 1412C9116.41 1412 10079 2374.59 10079 3562Z" fill="#D5F2FF"/>
<path d="M6906 3561C7147.18 5070.7 7144.26 5900.82 6906 7354" stroke="#94DEFF" stroke-width="12"/>
<path d="M8950.79 7355C8709.61 5845.3 8712.53 5015.18 8950.79 3562" stroke="#94DEFF" stroke-width="12"/>
<ellipse cx="9354.66" cy="4736.77" rx="368.5" ry="249.5" transform="rotate(100.172 9354.66 4736.77)" fill="black"/>
<ellipse cx="368.5" cy="249.5" rx="368.5" ry="249.5" transform="matrix(0.176606 0.984282 0.984282 -0.176606 6191 4418.13)" fill="black"/>
<path d="M8495.14 5921C8496.37 5936.26 8497 5951.68 8497 5967.26C8497 6281.23 8242.47 6535.76 7928.5 6535.76C7614.53 6535.76 7360 6281.23 7360 5967.26C7360 5951.68 7360.63 5936.26 7361.86 5921C7385.4 6213.34 7630.1 6443.24 7928.5 6443.24C8226.9 6443.24 8471.6 6213.34 8495.14 5921Z" fill="black"/>
<path d="M7929 4525L8332.57 5224H7525.43L7929 4525Z" fill="white"/>
<path d="M6906 2891L7309.57 3590H6502.43L6906 2891Z" fill="white"/>
<path d="M8951 2842L9354.57 3541H8547.43L8951 2842Z" fill="white"/>
<path d="M2939.91 871.502L3062.85 826.755L3297.75 853.173L3545.76 915.632L3484.45 1366.14L3162.58 1483.29L2840.71 1600.45L2504.17 1294.74L2654.01 1087.48L2816.97 916.251L2939.91 871.502Z" fill="#DFF5FF"/>
<path d="M3135.1 1407.79C3571.36 1249 4053.73 1473.94 4212.51 1910.19C4371.3 2346.45 4146.36 2828.82 3710.11 2987.61C3273.85 3146.39 2791.48 2921.46 2632.7 2485.2C2473.91 2048.95 2698.85 1566.57 3135.1 1407.79ZM3204.6 1601.75C2874.74 1721.81 2704.66 2086.54 2824.72 2416.41C2944.78 2746.27 3309.52 2916.35 3639.38 2796.29C3969.24 2676.23 4139.32 2311.49 4019.26 1981.63C3899.2 1651.77 3534.47 1481.69 3204.6 1601.75Z" fill="#DEAD00"/>
<path d="M4859.14 1217L4951.66 1309.52L5026.98 1533.57L5075.19 1784.74L4640.98 1919.57L4398.78 1677.37L4156.57 1435.17L4291.4 1000.95L4542.58 1049.16L4766.63 1124.49L4859.14 1217Z" fill="#DFF5FF"/>
<path d="M4455.59 1620.55C4783.87 1948.83 4783.87 2481.07 4455.59 2809.35C4127.32 3137.62 3595.08 3137.62 3266.8 2809.35C2938.52 2481.07 2938.52 1948.83 3266.8 1620.55C3595.08 1292.28 4127.32 1292.28 4455.59 1620.55ZM4309.18 1765.51C4060.96 1517.29 3658.52 1517.29 3410.3 1765.51C3162.08 2013.73 3162.08 2416.17 3410.3 2664.39C3658.52 2912.61 4060.96 2912.61 4309.18 2664.39C4557.4 2416.17 4557.4 2013.73 4309.18 1765.51Z" fill="#DEAD00"/>
</svg>
